HIERARCHY
ROOT Hips
{
  OFFSET 5.84602e-005 68.8428 3.50346
  CHANNELS 6 Xposition Yposition Zposition Zrotation Xrotation Yrotation
  JOINT Spine
  {
    OFFSET 0 8.597 -4.6522
    CHANNELS 3 Zrotation Xrotation Yrotation
    JOINT Spine1
    {
      OFFSET 0 7.8454 0.4098
      CHANNELS 3 Zrotation Xrotation Yrotation
      JOINT Spine2
      {
        OFFSET 0 9.7078 -2.1609
        CHANNELS 3 Zrotation Xrotation Yrotation
        JOINT Neck
        {
          OFFSET 0 21.8761 -0.4549
          CHANNELS 3 Zrotation Xrotation Yrotation
          JOINT Head
          {
            OFFSET 0 12.3537 3.3602
            CHANNELS 3 Zrotation Xrotation Yrotation
            End Site
            {
              OFFSET 0.0001 18.9506 0.5657
            }
          }
        }
        JOINT LeftShoulder
        {
          OFFSET 2.2086 21.1115 7.2329
          CHANNELS 3 Zrotation Xrotation Yrotation
          JOINT LeftArm
          {
            OFFSET 13.1193 3.0282 -4.8998
            CHANNELS 3 Zrotation Xrotation Yrotation
            JOINT LeftForeArm
            {
              OFFSET 27.4081 -0.0973053 -0.2375
              CHANNELS 3 Zrotation Xrotation Yrotation
              JOINT LeftHand
              {
                OFFSET 22.8641 0.0662994 -0.1369
                CHANNELS 3 Zrotation Xrotation Yrotation
                JOINT LeftHandIndex1
                {
                  OFFSET 8.8614 0.775009 2.4612
                  CHANNELS 3 Zrotation Xrotation Yrotation
                  JOINT LeftHandIndex2
                  {
                    OFFSET 3.3146 -0.808304 0.5841
                    CHANNELS 3 Zrotation Xrotation Yrotation
                    JOINT LeftHandIndex3
                    {
                      OFFSET 2.2628 -0.552002 0.3989
                      CHANNELS 3 Zrotation Xrotation Yrotation
                      End Site
                      {
                        OFFSET 1.6102 -0.4807 0.2612
                      }
                    }
                  }
                }
                JOINT LeftHandMiddle1
                {
                  OFFSET 8.9937 0.895004 0.2143
                  CHANNELS 3 Zrotation Xrotation Yrotation
                  JOINT LeftHandMiddle2
                  {
                    OFFSET 4.0984 0.0113983 -0.0242
                    CHANNELS 3 Zrotation Xrotation Yrotation
                    JOINT LeftHandMiddle3
                    {
                      OFFSET 2.2716 0.00689697 -0.0138001
                      CHANNELS 3 Zrotation Xrotation Yrotation
                      End Site
                      {
                        OFFSET 2.0404 -0.1441 0.0027
                      }
                    }
                  }
                }
                JOINT LeftHandRing1
                {
                  OFFSET 8.5234 0.597198 -2.0164
                  CHANNELS 3 Zrotation Xrotation Yrotation
                  JOINT LeftHandRing2
                  {
                    OFFSET 3.7188 -0.188293 -0.2328
                    CHANNELS 3 Zrotation Xrotation Yrotation
                    JOINT LeftHandRing3
                    {
                      OFFSET 2.1191 -0.106598 -0.1332
                      CHANNELS 3 Zrotation Xrotation Yrotation
                      End Site
                      {
                        OFFSET 1.8737 -0.2304 -0.0886
                      }
                    }
                  }
                }
                JOINT LeftHandPinky1
                {
                  OFFSET 7.9094 -0.601089 -3.4825
                  CHANNELS 3 Zrotation Xrotation Yrotation
                  JOINT LeftHandPinky2
                  {
                    OFFSET 2.2874 -0.477005 -0.6314
                    CHANNELS 3 Zrotation Xrotation Yrotation
                    JOINT LeftHandPinky3
                    {
                      OFFSET 1.6774 -0.349396 -0.4633
                      CHANNELS 3 Zrotation Xrotation Yrotation
                      End Site
                      {
                        OFFSET 1.4888 -0.4091 -0.3416
                      }
                    }
                  }
                }
                JOINT LeftHandThumb1
                {
                  OFFSET 1.833 -1.3875 1.3896
                  CHANNELS 3 Zrotation Xrotation Yrotation
                  JOINT LeftHandThumb2
                  {
                    OFFSET 3.4129 -1.121 2.5732
                    CHANNELS 3 Zrotation Xrotation Yrotation
                    JOINT LeftHandThumb3
                    {
                      OFFSET 2.2474 -0.804199 1.6192
                      CHANNELS 3 Zrotation Xrotation Yrotation
                      End Site
                      {
                        OFFSET 1.6527 -0.5689 1.1317
                      }
                    }
                  }
                }
              }
            }
          }
        }
        JOINT RightShoulder
        {
          OFFSET -2.2086 21.1115 7.2329
          CHANNELS 3 Zrotation Xrotation Yrotation
          JOINT RightArm
          {
            OFFSET -13.1216 3.0287 -4.9007
            CHANNELS 3 Zrotation Xrotation Yrotation
            JOINT RightForeArm
            {
              OFFSET -27.4081 -0.0973053 -0.2375
              CHANNELS 3 Zrotation Xrotation Yrotation
              JOINT RightHand
              {
                OFFSET -22.8641 0.0664063 -0.1369
                CHANNELS 3 Zrotation Xrotation Yrotation
                JOINT RightHandIndex1
                {
                  OFFSET -8.8614 0.774994 2.4612
                  CHANNELS 3 Zrotation Xrotation Yrotation
                  JOINT RightHandIndex2
                  {
                    OFFSET -3.3146 -0.808304 0.5841
                    CHANNELS 3 Zrotation Xrotation Yrotation
                    JOINT RightHandIndex3
                    {
                      OFFSET -2.2628 -0.552002 0.3989
                      CHANNELS 3 Zrotation Xrotation Yrotation
                      End Site
                      {
                        OFFSET -1.6102 -0.4807 0.2612
                      }
                    }
                  }
                }
                JOINT RightHandMiddle1
                {
                  OFFSET -8.9937 0.894989 0.2143
                  CHANNELS 3 Zrotation Xrotation Yrotation
                  JOINT RightHandMiddle2
                  {
                    OFFSET -4.0984 0.0113983 -0.0242
                    CHANNELS 3 Zrotation Xrotation Yrotation
                    JOINT RightHandMiddle3
                    {
                      OFFSET -2.2716 0.00691223 -0.0138001
                      CHANNELS 3 Zrotation Xrotation Yrotation
                      End Site
                      {
                        OFFSET -2.0404 -0.1441 0.0027
                      }
                    }
                  }
                }
                JOINT RightHandRing1
                {
                  OFFSET -8.5234 0.597198 -2.0164
                  CHANNELS 3 Zrotation Xrotation Yrotation
                  JOINT RightHandRing2
                  {
                    OFFSET -3.7188 -0.188309 -0.2328
                    CHANNELS 3 Zrotation Xrotation Yrotation
                    JOINT RightHandRing3
                    {
                      OFFSET -2.1191 -0.106598 -0.1332
                      CHANNELS 3 Zrotation Xrotation Yrotation
                      End Site
                      {
                        OFFSET -1.8737 -0.2304 -0.0886
                      }
                    }
                  }
                }
                JOINT RightHandPinky1
                {
                  OFFSET -7.9094 -0.601105 -3.4825
                  CHANNELS 3 Zrotation Xrotation Yrotation
                  JOINT RightHandPinky2
                  {
                    OFFSET -2.2874 -0.477005 -0.6314
                    CHANNELS 3 Zrotation Xrotation Yrotation
                    JOINT RightHandPinky3
                    {
                      OFFSET -1.6774 -0.349396 -0.4633
                      CHANNELS 3 Zrotation Xrotation Yrotation
                      End Site
                      {
                        OFFSET -1.4888 -0.4091 -0.3416
                      }
                    }
                  }
                }
                JOINT RightHandThumb1
                {
                  OFFSET -1.833 -1.38751 1.3896
                  CHANNELS 3 Zrotation Xrotation Yrotation
                  JOINT RightHandThumb2
                  {
                    OFFSET -3.41299 -1.12099 2.5732
                    CHANNELS 3 Zrotation Xrotation Yrotation
                    JOINT RightHandThumb3
                    {
                      OFFSET -2.24741 -0.804108 1.6192
                      CHANNELS 3 Zrotation Xrotation Yrotation
                      End Site
                      {
                        OFFSET -1.6527 -0.5689 1.1317
                      }
                    }
                  }
                }
              }
            }
          }
        }
      }
    }
  }
  JOINT RightUpLeg
  {
    OFFSET -9.1966 3.8861 -0.7581
    CHANNELS 3 Zrotation Xrotation Yrotation
    JOINT RightLeg
    {
      OFFSET -0.7359 -41.0265 0
      CHANNELS 3 Zrotation Xrotation Yrotation
      JOINT RightFoot
      {
        OFFSET 0 -40.2855 0
        CHANNELS 3 Zrotation Xrotation Yrotation
        JOINT RightToeBase
        {
          OFFSET 0 -5.6122 11.7359
          CHANNELS 3 Zrotation Xrotation Yrotation
          End Site
          {
            OFFSET 0 0 7.8731
          }
        }
      }
    }
  }
  JOINT LeftUpLeg
  {
    OFFSET 9.1965 3.8864 -0.7581
    CHANNELS 3 Zrotation Xrotation Yrotation
    JOINT LeftLeg
    {
      OFFSET 0.7359 -41.0268 0
      CHANNELS 3 Zrotation Xrotation Yrotation
      JOINT LeftFoot
      {
        OFFSET 0 -40.2855 0
        CHANNELS 3 Zrotation Xrotation Yrotation
        JOINT LeftToeBase
        {
          OFFSET 0 -5.6122 11.7359
          CHANNELS 3 Zrotation Xrotation Yrotation
          End Site
          {
            OFFSET 0 0 7.8731
          }
        }
      }
    }
  }
}
MOTION
Frames:	4
Frame Time:	0.0333333
5.84602e-005 -17.6637 3.50346 0 0 -0 0 0 -0 0 0 -0 0 0 -0 0 0 -0 0 0 -0 0 0 -0 0 0 -0 0 0 -0 0 0 -0 0 0 -0 0 0 -0 0 0 -0 0 0 -0 -0.0146107 -8.87603e-005 -2.63497e-007 2.99804e-018 -2.42657e-020 -1.42182e-022 0 0 -0 -0.0187562 -0.001176 5.858e-005 5.06224e-018 3.88251e-019 1.21329e-020 0 0 -0 -0.012269 -0.00324817 0.000675346 -1.74678e-018 3.88251e-019 -0 0 0 -0 0 0 -0 0 0 -0 0 0 -0 0 0 -0 0 0 -0 0 0 -0 0 0 -0 0 0 -0 0 0 -0 0 0 -0 0.0149955 -9.10982e-005 2.64101e-007 -9.69331e-018 1.21329e-020 -4.7394e-023 0 0 -0 0.0189956 -0.00119102 -5.96516e-005 -5.41541e-019 0 2.42657e-020 0 0 -0 0.0122698 -0.00324857 -0.000673756 -2.00796e-019 0 -1.94126e-019 0 0 -0 0 0 -0 0 0 -0 3.39841 1.32893 -0.0637791 2.89429e-007 0.837668 -0.000490668 -3.39935 -2.16659 -0.0642983 -6.1306e-023 -2.3697e-023 1.48106e-024 -3.39842 1.3331 0.0638168 5.40307e-007 0.829226 0.00032655 3.39934 -2.16233 0.0641716 9.4472e-024 0 5.92424e-024 
-0.00540296 -18.555 2.00229 0 15.997 -0 -0.255166 6.4646 -0.171628 -0.495478 12.9299 -0.317124 -0.495478 12.9299 -0.317123 -3.82322e-007 6.99702 -1.543e-006 -1.09707e-007 17.9984 -2.53456e-007 2.97585 -2.57704 3.53691 -77.9122 -1.94219 1.387 -22.5933 4.83578 0.131529 1.14828 2.05367 -28.8793 -1.59028e-015 0 6.36111e-015 -5.1684e-015 -3.97569e-016 6.36111e-015 -3.77691e-015 -3.97569e-016 3.18055e-015 -1.59028e-015 0 6.36111e-015 -0.0146028 -9.02867e-005 2.19578e-006 -1.59028e-015 -1.19271e-015 3.18055e-015 -1.59028e-015 0 6.36111e-015 -0.0187126 -0.00117429 5.85279e-005 2.98177e-015 -7.95139e-016 -3.18055e-015 -1.59028e-015 0 6.36111e-015 -0.0122927 -0.00325667 0.000676023 -1.98785e-016 3.97569e-016 -3.18055e-015 -1.59028e-015 0 6.36111e-015 -5.1684e-015 -3.97569e-016 6.36111e-015 -3.77691e-015 -3.97569e-016 3.18055e-015 11.7802 -1.8723 -4.79252 70.6468 -1.44417 -3.64356 10.2521 2.70688 -0.154132 5.22636 1.7434 25.9777 -7.95139e-016 -1.59028e-015 -0 1.67044e-007 -5.70465e-007 6.06599e-007 1.98785e-015 -4.77083e-015 -3.18055e-015 -7.95139e-016 -1.59028e-015 -0 0.0150264 -9.28197e-005 -5.9052e-007 1.59028e-015 1.59028e-015 3.18055e-015 -7.95139e-016 -1.59028e-015 -0 0.0189951 -0.00119063 -5.99033e-005 -3.53113e-031 3.18055e-015 6.36111e-015 -7.95139e-016 -1.59028e-015 -0 0.0122536 -0.0032454 -0.000676903 -1.98785e-015 3.18055e-015 -0 -7.95139e-016 -1.59028e-015 -0 1.67044e-007 -5.70465e-007 6.06599e-007 1.98785e-015 -4.77083e-015 -3.18055e-015 1.32498 -12.1376 -13.8837 -121.615 82.6445 120.01 11.4877 27.7091 -14.0992 9.29539e-008 3.15136e-008 1.89426e-007 -1.11999 -12.7607 13.6451 84.8771 83.0417 -83.7426 -28.9949 55.4162 49.3918 -1.07174e-006 -1.0716e-006 7.88633e-007 
-0.00550883 -18.5706 1.74303 0 16.7732 -0 -0.255059 5.89675 -0.172983 -0.496084 11.7942 -0.321991 -0.496084 11.7942 -0.321991 7.54129e-006 6.6081 -3.67674e-006 -1.61251e-007 17.0019 -1.87355e-007 3.29313 -0.637568 3.76831 -77.912 -1.94222 1.38709 -22.9979 4.97165 0.130657 1.47103 2.50544 -28.8259 5.96354e-016 -7.95139e-016 3.18055e-015 1.19271e-015 -7.95139e-016 3.18055e-015 3.97569e-016 -7.95139e-016 -0 5.96354e-016 -7.95139e-016 3.18055e-015 -0.0146229 -8.90024e-005 3.75344e-007 -1.59028e-015 0 -3.18055e-015 5.96354e-016 -7.95139e-016 3.18055e-015 -0.0187245 -0.00117397 5.87665e-005 -2.38542e-015 3.97569e-016 -0 5.96354e-016 -7.95139e-016 3.18055e-015 -0.012245 -0.00324316 0.000672327 -5.96354e-016 0 -0 5.96354e-016 -7.95139e-016 3.18055e-015 1.19271e-015 -7.95139e-016 3.18055e-015 3.97569e-016 -7.95139e-016 -0 11.0248 0.0596414 -5.37584 71.0427 -1.48989 -3.7246 10.5548 2.73449 -0.153731 4.99768 2.21932 25.8437 -1.03368e-014 -5.56597e-015 -6.36111e-015 -1.11319e-014 -3.18055e-015 -0 -9.93923e-015 -1.59028e-015 3.18055e-015 -1.03368e-014 -5.56597e-015 -6.36111e-015 0.0149991 -8.873e-005 -6.31633e-007 -7.95139e-016 -7.95139e-016 -9.54166e-015 -1.03368e-014 -5.56597e-015 -6.36111e-015 0.0190234 -0.00119175 -6.19241e-005 7.95139e-016 1.59028e-015 -3.18055e-015 -1.03368e-014 -5.56597e-015 -6.36111e-015 0.0122701 -0.00324383 -0.000671487 -7.95139e-016 1.59028e-015 -0 -1.03368e-014 -5.56597e-015 -6.36111e-015 -1.11319e-014 -3.18055e-015 -0 -9.93923e-015 -1.59028e-015 3.18055e-015 1.28073 -13.4847 -13.9529 -123.668 82.4821 122.008 11.4882 27.7094 -14.1002 1.86709e-007 6.33013e-008 3.78401e-007 -1.08781 -13.8204 13.7241 87.3358 83.0305 -86.17 -29.0107 55.4152 49.409 -4.33059e-006 -6.69518e-007 1.45091e-006 
-0.00561567 -18.5848 1.48345 0 17.5501 -0 -0.254736 5.31443 -0.17427 -0.496381 10.6296 -0.326814 -0.496381 10.6296 -0.326814 -7.92491e-006 6.22006 4.4075e-006 -5.51624e-008 16.0042 -2.93021e-007 3.60414 1.31255 3.99008 -77.9118 -1.94227 1.38716 -23.4018 5.11125 0.129802 1.79357 2.95766 -28.775 2.88573e-007 1.6724e-006 1.90458e-006 9.93923e-016 -3.97569e-016 9.54166e-015 9.93923e-016 0 9.54166e-015 2.88573e-007 1.6724e-006 1.90458e-006 -0.0145971 -8.79441e-005 -5.63243e-007 -9.93923e-017 3.97569e-016 -0 2.88573e-007 1.6724e-006 1.90458e-006 -0.0187497 -0.00117563 5.67526e-005 6.95746e-016 -3.97569e-016 6.36111e-015 2.88573e-007 1.6724e-006 1.90458e-006 -0.0122659 -0.00324899 0.000677565 8.94531e-016 0 -3.18055e-015 2.88573e-007 1.6724e-006 1.90458e-006 9.93923e-016 -3.97569e-016 9.54166e-015 9.93923e-016 0 9.54166e-015 10.2845 2.01025 -5.93715 71.4386 -1.53619 -3.80535 10.8574 2.76325 -0.153358 4.76992 2.69593 25.7115 1.6383e-007 -5.71117e-007 6.06341e-007 -1.19271e-015 0 -3.18055e-015 1.6383e-007 -5.71117e-007 6.06341e-007 1.6383e-007 -5.71117e-007 6.06341e-007 0.0149916 -9.25147e-005 1.79711e-006 1.63842e-007 -5.71038e-007 6.06416e-007 1.6383e-007 -5.71117e-007 6.06341e-007 0.0189944 -0.00119028 -5.69973e-005 1.63851e-007 -5.71017e-007 6.06434e-007 1.6383e-007 -5.71117e-007 6.06341e-007 0.0122597 -0.0032478 -0.000675154 1.6386e-007 -5.71054e-007 6.06397e-007 1.6383e-007 -5.71117e-007 6.06341e-007 -1.19271e-015 0 -3.18055e-015 1.6383e-007 -5.71117e-007 6.06341e-007 1.23474 -14.5457 -14.0284 -123.828 82.4656 122.165 11.4888 27.7097 -14.1012 5.6254e-007 1.90732e-007 1.13384e-006 -1.05424 -14.8816 13.8042 89.7825 83.0067 -88.5854 -29.0265 55.4143 49.4262 2.89039e-006 -1.85225e-006 -1.82181e-006 
